<?xml version="1.0" encoding="utf-8"?>
<!-- Generator: Adobe Illustrator 18.1.1, SVG Export Plug-In . SVG Version: 6.00 Build 0)  -->
<svg version="1.1" id="Layer_1" xmlns="http://www.w3.org/2000/svg" xmlns:xlink="http://www.w3.org/1999/xlink" x="0px" y="0px"
	 width="792px" height="612px" viewBox="0 0 792 612" enable-background="new 0 0 792 612" xml:space="preserve">
<circle fill="#414042" cx="-184.6" cy="96.8" r="52.1"/>
<g>
	<rect x="33" y="247.9" fill="none" width="84.9" height="13.1"/>
	<text transform="matrix(1 0 0 1 53.5135 256.1891)" font-family="'Futura-Bold'" font-size="10">DONATE</text>
</g>
<path fill="#414042" d="M89.5,205.6c-1.5,0-2.7,1.2-2.7,2.7v8.9c0,0.1,0,0.5-0.3,0.8c-0.1,0.1-0.3,0.3-0.6,0.3
	c-0.3,0-0.5-0.1-0.6-0.3c-0.3-0.3-0.3-0.7-0.3-0.8v-28.3c0-1.4-1.2-2.6-2.6-2.6c-1.4,0-2.6,1.2-2.6,2.6l0,21.8c0,0.1,0,0.4-0.2,0.6
	c-0.1,0.1-0.3,0.3-0.7,0.3c-0.4,0-0.6-0.1-0.7-0.3c-0.2-0.2-0.2-0.5-0.2-0.6v-25c0-1.4-1.2-2.6-2.6-2.6c-1.4,0-2.6,1.2-2.6,2.6v25
	c0,0.1,0,0.4-0.2,0.6c-0.1,0.1-0.3,0.3-0.7,0.3c-0.4,0-0.6-0.1-0.7-0.3c-0.2-0.2-0.2-0.5-0.2-0.6V189c0,0,0.1-2.8-2.6-2.8
	s-2.6,2.8-2.6,2.8v23.3c0,0.5-0.4,0.9-0.9,0.9c-0.5,0-0.9-0.4-0.9-0.9v-12.7c0-1.4-1.2-2.6-2.7-2.6c-1.4,0-2.6,1.2-2.6,2.6l0,24.2
	c0,2.6,0.6,5,1.8,6.9c3.5,5.6,8.6,8.5,15.2,8.5h0.1c4.1,0,7.8-1.5,10.9-4.3c3.7-3.3,5.5-5.9,5.5-13.4v-13.4
	C92.2,206.8,91,205.6,89.5,205.6z M80.8,223.7l-7.1,9.1l-7.4-9.5c-0.9-0.9-1.4-2.6-1.4-4c0-2.7,2.2-4.8,4.8-4.8
	c1.7,0,3.2,0.9,4.1,2.2c0.9-1.3,2.4-2.2,4.1-2.2c2.7,0,4.8,2.2,4.8,4.8C82.7,221,82,222.9,80.8,223.7z"/>
<rect x="213.2" y="185.8" fill="none" width="26" height="26"/>
<rect x="213.2" y="185.8" fill="none" width="26" height="26"/>
<path fill="#010101" d="M302.2-61.1V-46c0,0.6-0.5,1.2-1.2,1.2s-1.2-0.5-1.2-1.2V-68h-7v19.7c0,0.6-0.5,1.2-1.2,1.2
	s-1.2-0.5-1.2-1.2v-22.1h-7v22.1c0,0.6-0.5,1.2-1.2,1.2s-1.2-0.5-1.2-1.2v-17.4h-7v29l-4.7-6.4c-1.4-2.1-4.1-2.9-6.1-1.6
	c-2,1.3-2.5,4-1.1,6.1c0,0,7.6,11.5,10.8,16.4c3.2,4.9,8.5,8.8,18.3,8.8c16.2,0,17.7-12.5,17.7-16.3s0-31.4,0-31.4H302.2z"/>
<path fill="#414042" d="M653.8,186.1h-37.5c-2.3,0-4.2,1.8-4.2,4.2v16.9c0,1.3,0.8,2.7,1.5,3.3c0.5,0.5,1.7,0.9,2.7,0.9h37.5
	c2.3,0,4.2-1.9,4.2-4.2v-16.9C658.1,188,656.1,186.1,653.8,186.1z M654.9,202.4c-2.5,0.9-4.7,2.9-5.7,5.8h-28.3
	c-1.1-2.8-3.3-4.8-5.7-5.8V195c2.4-0.9,4.6-2.9,5.7-5.8h28.4c1,3,3.2,5,5.7,5.8L654.9,202.4L654.9,202.4z"/>
<path fill="#414042" d="M635,191.3c-4.1,0-7.5,3.3-7.5,7.5c0,4.1,3.3,7.5,7.5,7.5c4.1,0,7.5-3.3,7.5-7.5
	C642.5,194.6,639.1,191.3,635,191.3z M635.6,203v1.4h-1.3v-1.3c-0.9,0-1.8-0.3-2.4-0.6l0.4-1.6c0.6,0.3,1.4,0.6,2.3,0.6
	c0.8,0,1.3-0.3,1.3-0.9c0-0.5-0.4-0.9-1.5-1.2c-1.5-0.5-2.5-1.2-2.5-2.5c0-1.2,0.9-2.2,2.3-2.5v-1.3h1.4v1.2c0.9,0,1.5,0.2,2,0.5
	l-0.4,1.6c-0.4-0.2-1-0.5-2-0.5c-0.9,0-1.2,0.4-1.2,0.8c0,0.5,0.5,0.7,1.7,1.2c1.6,0.6,2.3,1.3,2.3,2.6
	C638.1,201.7,637.2,202.7,635.6,203z"/>
<path fill="#414042" d="M244.3,204.1c0,0.1,0,0.2,0,0.3c0,4.5-4,8.2-8.8,8.2c-1.2,0-2.5-0.2-3.6-0.7c-1.7,1.9-4.1,2.9-6.8,2.9
	c-2,0-3.8-0.6-5.4-1.7c-1.3,0.6-2.7,0.9-4.1,0.9c-4.3,0-7.9-2.8-8.7-6.7c-3.3-1.2-5.5-4.2-5.5-7.6c0-2.4,1.1-4.6,3-6.1
	c0-0.3-0.1-0.6-0.1-1c0-4.5,4-8.2,8.8-8.2c0.8,0,1.6,0.1,2.3,0.3c1.5-2.7,4.5-4.4,7.9-4.4c2,0,3.9,0.6,5.4,1.7
	c1.4-0.8,3-1.2,4.6-1.2c4.5,0,8.2,3.1,8.8,7.1c4.9,0,8.8,3.7,8.8,8.2C251,199.9,248.2,203.2,244.3,204.1z"/>
<path fill="#414042" d="M489.3,308.8c-21.9,0-39.7,17.8-39.7,39.7c0,21.9,17.8,39.7,39.7,39.7c21.9,0,39.7-17.8,39.7-39.7
	C528.9,326.6,511.2,308.8,489.3,308.8z M516.1,356.6h-18.8v18.7h-16.2v-18.7h-18.8v-16.2h18.8v-18.8h16.2v18.8h18.8L516.1,356.6
	L516.1,356.6z"/>
<rect x="173.2" y="246" fill="none" width="80" height="16"/>
<text transform="matrix(1 0 0 1 179.8593 254.2986)" font-family="'Futura-Bold'" font-size="10">PREDICTABLE</text>
<rect x="309.1" y="246" fill="none" width="80" height="16"/>
<text transform="matrix(1 0 0 1 313.5464 254.2986)" font-family="'Futura-Bold'" font-size="10">PREVENTABLE</text>
<rect x="462.2" y="246" fill="none" width="80" height="16"/>
<text transform="matrix(1 0 0 1 474.3027 254.2986)" font-family="'Futura-Bold'" font-size="10">TREATABLE</text>
<rect x="594.6" y="246" fill="none" width="80" height="16"/>
<text transform="matrix(1 0 0 1 601.1255 254.2986)" font-family="'Futura-Bold'" font-size="10">AFFORDABLE</text>
<path fill="#414042" d="M364.6,196c-1.5,0-2.7,1.2-2.7,2.6v12.7c0,0.5-0.4,0.9-0.9,0.9s-0.9-0.4-0.9-0.9V188c0,0,0.1-2.8-2.6-2.8
	c-2.7,0-2.6,2.8-2.6,2.8v21.6c0,0.1,0,0.4-0.2,0.6c-0.1,0.1-0.3,0.3-0.7,0.3c-0.3,0-0.6-0.2-0.7-0.3c-0.2-0.2-0.2-0.5-0.2-0.6v-25
	c0-1.5-1.2-2.6-2.6-2.6c-1.4,0-2.6,1.2-2.6,2.6v25c0,0.1,0,0.4-0.2,0.6c-0.1,0.1-0.3,0.3-0.7,0.3c-0.3,0-0.6-0.1-0.7-0.3
	c-0.2-0.2-0.2-0.5-0.2-0.6l0-21.8c0-1.4-1.2-2.6-2.6-2.6c-1.4,0-2.6,1.2-2.6,2.6v28.3c0,0.1,0,0.5-0.3,0.8c-0.1,0.1-0.3,0.2-0.6,0.2
	s-0.5-0.1-0.6-0.3c-0.3-0.3-0.3-0.7-0.2-0.8v-8.9c0-1.5-1.2-2.7-2.7-2.7c-1.5,0-2.7,1.2-2.7,2.7v13.4c0,7.4,1.9,10,5.5,13.3
	c3.2,2.9,6.8,4.3,10.9,4.3h0.1c6.6,0,11.7-2.9,15.2-8.5c1.2-2,1.8-4.3,1.8-6.9v-24.2C367.2,197.1,366,196,364.6,196z M351.4,232.9
	c-1.1,0-1.9-0.9-1.9-1.9c0-1.1,0.9-1.9,1.9-1.9s1.9,0.9,1.9,1.9C353.4,232,352.5,232.9,351.4,232.9z M351.4,227.5
	c-1.1,0-1.9-9.7-1.9-10.7c0-1.1,0.9-1.9,1.9-1.9s1.9,0.9,1.9,1.9C353.4,217.8,352.5,227.5,351.4,227.5z"/>
<path d="M365.7-51.9v13.4c0,7.4,1.9,10,5.5,13.3c3.2,2.9,6.8,4.3,10.9,4.3h0.1c6.6,0,11.7-2.9,15.2-8.5c1.2-2,1.8-4.3,1.8-6.9v-24.2
	c0-1.4-1.2-2.6-2.6-2.6c-1.5,0-2.7,1.2-2.7,2.6v12.7c0,0.5-0.4,0.9-0.9,0.9s-0.9-0.4-0.9-0.9v-23.3c0,0,0.1-2.8-2.6-2.8
	c-2.7,0-2.6,2.8-2.6,2.8v21.6c0,0.1,0,0.4-0.2,0.6c-0.1,0.1-0.3,0.3-0.7,0.3c-0.3,0-0.6-0.2-0.7-0.3c-0.2-0.2-0.2-0.5-0.2-0.6v-25
	c0-1.5-1.2-2.6-2.6-2.6c-1.4,0-2.6,1.2-2.6,2.6v25c0,0.1,0,0.4-0.2,0.6c-0.1,0.1-0.3,0.3-0.7,0.3c-0.3,0-0.6-0.1-0.7-0.3
	c-0.2-0.2-0.2-0.5-0.2-0.6l0-21.8c0-1.4-1.2-2.6-2.6-2.6c-1.4,0-2.6,1.2-2.6,2.6V-43c0,0.1,0,0.5-0.3,0.8c-0.1,0.1-0.3,0.2-0.6,0.2
	s-0.5-0.1-0.6-0.3c-0.3-0.3-0.3-0.7-0.2-0.8v-8.9c0-1.5-1.2-2.7-2.7-2.7C366.9-54.6,365.7-53.4,365.7-51.9z"/>
<path fill="#FFFFFF" d="M385.4-42.4c0,1.1-0.9,10.7-1.9,10.7s-1.9-9.7-1.9-10.7c0-1.1,0.9-1.9,1.9-1.9S385.4-43.5,385.4-42.4z"/>
<circle fill="#FFFFFF" cx="383.5" cy="-28.2" r="1.9"/>
<path fill="#FFFFFF" d="M280.3,165.8c3.9-0.9,7.8,1,9.3,4.5c0.2,0.4,0.5,0.6,0.9,0.4l0.5-0.2c0.4-0.1,0.6-0.6,0.5-0.9
	c-1.8-4.4-6.8-6.8-11.6-5.6c-0.4,0.1-0.6,0.5-0.5,0.9l0.1,0.4C279.6,165.7,279.9,165.9,280.3,165.8z"/>
<circle fill="#FFFFFF" cx="214.2" cy="197.6" r="3.3"/>
<circle fill="#414042" cx="202.4" cy="217.1" r="4.6"/>
<circle fill="#414042" cx="195.5" cy="225.3" r="3.4"/>
<circle fill="#FFFFFF" cx="226.2" cy="197.6" r="3.3"/>
<circle fill="#FFFFFF" cx="238.2" cy="197.6" r="3.3"/>
<path fill="#414042" d="M840.6,22.4c0-3.5-2.9-6.4-6.4-6.4h-8.9c-3.5,0-6.4,2.9-6.4,6.4v30.9h21.7V22.4z M823.8,45.7h-2v-21h2V45.7z
	"/>
<path fill="#58595B" d="M819.6,79.7c0,3.3,2.7,6,6,6h8.4c3.3,0,6-2.7,6-6V55h-20.3V79.7z"/>
<path fill="#414142" d="M946.3,141.5L946.3,141.5c-9.7,0-17.7-7.9-17.7-17.7v-62c0-9.7,7.9-17.7,17.7-17.7h0
	c9.7,0,17.7,7.9,17.7,17.7v62C964,133.6,956,141.5,946.3,141.5z"/>
<path fill="#1A1A1A" d="M894.7,44.2c-9.7,0-17.7,7.9-17.7,17.7v62c0,9.7,7.9,17.7,17.7,17.7s17.7-8,17.7-17.7v-62
	C912.3,52.1,904.4,44.2,894.7,44.2z M908.3,123.8c0,6.6-5.4,12-12,12H893c-6.6,0-12-5.4-12-12V61.7c0-6.6,5.4-12,12-12h3.3
	c6.6,0,12,5.4,12,12V123.8z"/>
<path fill="#414142" d="M887.3,278.3L887.3,278.3c-9.7,0-17.7-8-17.7-17.7v-62c0-9.7,8-17.7,17.7-17.7h0c9.7,0,17.7,7.9,17.7,17.7
	v62C905,270.4,897,278.3,887.3,278.3z"/>
<path fill="#FFFFFF" d="M889,272.7h-3.3c-6.6,0-12-5.4-12-12v-62.2c0-6.6,5.4-12,12-12h3.3c6.6,0,12,5.4,12,12v62.2
	C901,267.3,895.6,272.7,889,272.7z"/>
<path fill="#414042" d="M897.3,141.5L897.3,141.5c-6.6,0-12-5.4-12-12V91.6c0-6.6,5.4-12,12-12l0,0c6.6,0,12,5.4,12,12v37.9
	C909.3,136.1,903.9,141.5,897.3,141.5z"/>
<path fill="#1A1A1A" d="M502.2,163.1c-7.1,0-12.9,5.8-12.9,12.9v45.4c0,7.1,5.8,12.9,12.9,12.9c7.1,0,12.9-5.8,12.9-12.9v-45.4
	C515.1,169,509.3,163.1,502.2,163.1z M512.2,221.5c0,4.8-4,8.8-8.8,8.8H501c-4.8,0-8.8-4-8.8-8.8v-45.5c0-4.8,4-8.8,8.8-8.8h2.4
	c4.8,0,8.8,4,8.8,8.8V221.5z"/>
<path fill="#1A1A1A" d="M495.4,224.5c0,5.5,4,9.9,8.8,9.9c4.8,0,8.8-4.5,8.8-9.9v-25.7h-17.6V224.5z"/>
<path fill="#414042" d="M654.3,183.4h-31.6c-4-0.3-5.8,0.6-6.6,2.2c1.1-0.7,2.7-1,5.3-0.8H653c8-0.2,7.2,3.7,7.2,7.6v10.4
	c0,1.8,0,3.7-0.7,5.1c2-1.3,2-3.8,2-6.4v-10.4C661.5,187.1,662.3,183.2,654.3,183.4z"/>
<path fill="#414042" d="M657.8,179.9h-31.6c-4-0.3-5.8,0.6-6.6,2.2c1.1-0.7,2.7-1,5.3-0.8h31.6c8-0.2,7.2,3.7,7.2,7.6v10.4
	c0,1.8,0,3.7-0.7,5.1c2-1.3,2-3.8,2-6.4v-10.4C665,183.6,665.8,179.7,657.8,179.9z"/>
<path fill="#010101" d="M732.1-50.6h-31.6c-7.2,0.6-7.2-3.2-7.2-7.2v-10.4c0-4-0.6-8.3,7.2-7.6h31.6c8-0.2,7.2,3.7,7.2,7.6v10.4
	C739.3-53.9,739.3-49.9,732.1-50.6z"/>
<path fill="#FFFFFF" d="M730.9-49.3h-31.6c-7.2,0.6-7.2-3.2-7.2-7.2v-10.4c0-4-0.6-8.3,7.2-7.6h31.6c8-0.2,7.2,3.7,7.2,7.6v10.4
	C738.1-52.5,738.1-48.6,730.9-49.3z"/>
<path fill="#414042" d="M784.2,206.8c-0.8-0.5-1.8-0.3-2.4,0.5c-0.9,1.3-2.1,1.9-3.2,2.2c0-2-1-4.1-2.7-5.8c-1.7-1.7-4.1-2-5.8-0.8
	c-1.3,0.9-2.3,2.9-0.9,5.6c0.8,1.7,2.4,3,4.3,3.8c-0.4,0.3-0.8,0.5-1.2,0.7c-1,0.5-2.1,0.8-3.1,1c-4.9-10-17.7-17.1-32.6-17.1
	c-3,0-5.7,0.2-8.3,0.5c-4.3-2.8-12.2-6.2-20.2-5.7c0.4,3.3,2.4,7.6,5,10.6c-5.1,3.1-8.3,7.4-10,12.4c-1.9,0.8-4,1.4-6.3,1.5
	c-1.7,0.1-3,1.6-2.9,3.3c0.3,4.4,1.6,11.9,6.8,13.8c1,0.4,2.5,0.6,4.3,0.7c2.2,3.6,5.4,6.7,9.3,9.2c-0.7,3.3-1.5,6.6-2.5,10
	c-0.4,1.4,0.7,2.9,2.2,2.9h9.6c0.9,0,1.8-0.6,2.1-1.5c0.8-2,1.4-4.1,1.9-6.2c2.8,0.6,5.8,0.9,8.9,0.9c3.6,0,7-0.4,10.3-1.2
	c-0.4,1.7-0.9,3.4-1.4,5.1c-0.4,1.4,0.7,2.9,2.2,2.9h9.6c0.9,0,1.8-0.6,2.1-1.5c1.7-4.6,2.8-9.5,3.5-14.5c5.3-4.6,8.4-10.6,8.4-17.1
	c0-2-0.3-4-0.9-5.8c1.1-0.2,2.2-0.6,3.4-1.2c1.9-0.9,3-2,3.8-3c2.9-0.1,5.6-1.5,7.2-3.8C785.2,208.4,785,207.4,784.2,206.8z
	 M716,215.1c-1.6,0-2.9-1.3-2.9-2.8c0-1.6,1.3-2.8,2.9-2.8c1.6,0,2.8,1.3,2.8,2.8C718.8,213.8,717.5,215.1,716,215.1z M772.2,206.9
	c-0.3-0.7-0.3-1.2-0.2-1.3c0.1-0.1,0.2-0.1,0.3-0.1c0.3,0,0.7,0.1,1.1,0.5c1,1,1.7,2.2,1.7,3.2C773.8,208.8,772.7,208,772.2,206.9z"
	/>
<circle fill="#414042" cx="738.2" cy="179.2" r="13.2"/>
<path fill="#414042" d="M756.2,182.1c1.7-8.1-3.5-15.9-11.6-17.6c-2-0.4-4.1-0.4-6,0c1.2-0.1,2.4,0,3.7,0.3
	c8.1,1.7,13.3,9.5,11.6,17.6c-1.2,6-5.9,10.4-11.6,11.6C749,193.7,754.8,188.9,756.2,182.1z"/>
<circle fill="#010101" cx="-70.6" cy="214.5" r="10.1"/>
<circle fill="#FFFFFF" cx="-74.1" cy="215" r="10.1"/>
<g>
	<path fill="#FFFFFF" d="M737.3,184.6c-0.7-0.1-1.3-0.3-1.9-0.5c-0.6-0.3-1.1-0.6-1.5-1l0.6-1c0.1-0.1,0.1-0.2,0.2-0.2
		c0.1-0.1,0.2-0.1,0.3-0.1c0.1,0,0.3,0,0.4,0.1c0.1,0.1,0.3,0.2,0.5,0.3c0.2,0.1,0.4,0.2,0.6,0.4s0.5,0.2,0.8,0.3l0.3-3.8
		c-0.4-0.1-0.8-0.2-1.2-0.4c-0.4-0.2-0.7-0.4-1.1-0.6c-0.3-0.3-0.6-0.6-0.8-1c-0.2-0.4-0.3-0.9-0.3-1.4c0-0.4,0.1-0.9,0.3-1.3
		c0.2-0.4,0.4-0.8,0.7-1.1c0.3-0.3,0.7-0.6,1.2-0.8c0.5-0.2,1-0.3,1.6-0.3l0.1-1.1c0-0.1,0.1-0.3,0.2-0.4c0.1-0.1,0.2-0.2,0.4-0.2
		h0.8l-0.1,1.7c0.6,0.1,1.1,0.3,1.5,0.5c0.4,0.2,0.8,0.5,1.1,0.8l-0.5,0.8c-0.1,0.1-0.2,0.2-0.2,0.3c-0.1,0.1-0.2,0.1-0.3,0.1
		c-0.1,0-0.2,0-0.3-0.1c-0.1-0.1-0.2-0.1-0.4-0.2c-0.1-0.1-0.3-0.2-0.5-0.2c-0.2-0.1-0.4-0.1-0.6-0.2l-0.3,3.5
		c0.4,0.1,0.8,0.3,1.2,0.4c0.4,0.1,0.8,0.3,1.1,0.6c0.3,0.2,0.6,0.5,0.8,0.9c0.2,0.4,0.3,0.8,0.3,1.3c0,0.5-0.1,1-0.3,1.5
		c-0.2,0.5-0.4,0.9-0.8,1.2s-0.7,0.6-1.2,0.9s-1.1,0.4-1.7,0.4l-0.1,1.2c0,0.1-0.1,0.2-0.2,0.4c-0.1,0.1-0.2,0.2-0.4,0.2h-0.8
		L737.3,184.6z M736.4,175.4c0,0.2,0,0.4,0.1,0.6c0.1,0.2,0.2,0.3,0.3,0.4c0.1,0.1,0.3,0.2,0.5,0.3c0.2,0.1,0.4,0.2,0.6,0.3l0.3-3.1
		c-0.3,0-0.6,0.1-0.8,0.2c-0.2,0.1-0.4,0.2-0.5,0.3s-0.2,0.3-0.3,0.5C736.5,175.1,736.4,175.3,736.4,175.4z M740.5,181
		c0-0.2,0-0.4-0.1-0.6s-0.2-0.3-0.3-0.4c-0.1-0.1-0.3-0.2-0.5-0.3c-0.2-0.1-0.4-0.2-0.6-0.2l-0.3,3.4c0.6-0.1,1.1-0.3,1.4-0.6
		S740.5,181.5,740.5,181z"/>
</g>
<path fill="#1A1A1A" d="M238.4,355.8c0-1.5,0-3.9,0-8.2c0-5.2-4.7-9.7-11-9.7c0,0,0,0-14.6,0l-0.1-4.6c0-1.3-1.1-2.4-2.4-2.4h-5.7
	v-2.9c0.5-0.3,0.9-0.7,1.3-1.1c1.7,0,5.2,0,12.2,0c0.8,1,2,1.8,3.4,1.8c2.4,0,4.4-2,4.4-4.4c0-2.4-2-4.4-4.4-4.4
	c-1.5,0-2.7,0.8-3.5,1.9c-1.9,0-5.5,0-12.1,0c-0.8-1.1-2-1.9-3.5-1.9c-1.4,0-2.7,0.8-3.5,1.9c-3.7,0-8.2,0-13.3,0
	c-0.8-1.1-2-1.9-3.5-1.9c-2.4,0-4.4,2-4.4,4.4c0,2.4,2,4.4,4.4,4.4c1.4,0,2.6-0.7,3.4-1.8c2.2,0,6.2,0,13.4,0
	c0.4,0.5,0.8,0.8,1.3,1.1v2.9h-6.1c-1.3,0-2.4,1.1-2.4,2.4v4.6c-1.5,0-5.8,0-17.7,0v14.2c0.4,0,3.3,0,19.7,0
	c1.9,3.9,4.5,5.8,8.4,5.8c3.9,0,7.1-1.9,9-5.8c0,0,0,0,7.1,0c2.1,0,2.9,1.4,3.1,4c-0.6,0.4-1.1,1.1-1.1,1.9c0,1.3,1.1,2.4,2.4,2.4
	h14.7c1.3,0,2.4-1.1,2.4-2.4C240,357,239.3,356.1,238.4,355.8z"/>
<path fill="#1A1A1A" d="M222.9,381.1c0,10.6,14.2,10.6,14.2,0c0-1.9-5.8-15.5-7.1-18.1C228.7,364.9,222.9,379.1,222.9,381.1z
	 M231.3,378v2.3h1.8c0.7,0,1.3,0.6,1.3,1.3c0,0.7-0.6,1.3-1.3,1.3h-1.8v1.7c0,0.7-0.6,1.3-1.3,1.3h-0.4c-0.7,0-1.3-0.6-1.3-1.3v-1.7
	h-1.8c-0.7,0-1.3-0.6-1.3-1.3c0-0.7,0.6-1.3,1.3-1.3h1.8V378c0-0.7,0.6-1.3,1.3-1.3h0.4C230.7,376.7,231.3,377.3,231.3,378z"/>
<path fill="#414042" d="M-98,296.9c1.3,2.6,7.1,16.1,7.1,18.1c0,10.6-14.2,10.6-14.2,0C-105.1,313-99.3,298.8-98,296.9z
	 M-89.6,289.7c0-1.5,0-3.9,0-8.2c0-5.2-4.7-9.7-11-9.7c0,0,0,0-14.6,0l-0.1-4.6c0-1.3-1.1-2.4-2.4-2.4h-5.7v-2.9
	c0.5-0.3,0.9-0.7,1.3-1.1c1.7,0,5.2,0,12.2,0c0.8,1,2,1.8,3.4,1.8c2.4,0,4.4-2,4.4-4.4c0-2.4-2-4.4-4.4-4.4c-1.5,0-2.7,0.8-3.5,1.9
	c-1.9,0-5.5,0-12.1,0c-0.8-1.1-2-1.9-3.5-1.9c-1.4,0-2.7,0.8-3.5,1.9c-3.7,0-8.2,0-13.3,0c-0.8-1.1-2-1.9-3.5-1.9
	c-2.4,0-4.4,2-4.4,4.4c0,2.4,2,4.4,4.4,4.4c1.4,0,2.6-0.7,3.4-1.8c2.2,0,6.2,0,13.4,0c0.4,0.5,0.8,0.8,1.3,1.1v2.9h-6.1
	c-1.3,0-2.4,1.1-2.4,2.4v4.6c-1.5,0-5.8,0-17.7,0V286c0.4,0,3.3,0,19.7,0c1.9,3.9,4.5,5.8,8.4,5.8c3.9,0,7.1-1.9,9-5.8
	c0,0,0,0,7.1,0c2.1,0,2.9,1.4,3.1,4c-0.6,0.4-1.1,1.1-1.1,1.9c0,1.3,1.1,2.4,2.4,2.4h14.7c1.3,0,2.4-1.1,2.4-2.4
	C-88,290.9-88.7,290-89.6,289.7z"/>
<path fill="#FFFFFF" d="M-98,319.7h-0.4c-0.7,0-1.3-0.6-1.3-1.3v-6.6c0-0.7,0.6-1.3,1.3-1.3h0.4c0.7,0,1.3,0.6,1.3,1.3v6.6
	C-96.7,319.1-97.3,319.7-98,319.7z"/>
<path fill="#FFFFFF" d="M-94.9,316.8h-6.6c-0.7,0-1.3-0.6-1.3-1.3l0,0c0-0.7,0.6-1.3,1.3-1.3h6.6c0.7,0,1.3,0.6,1.3,1.3l0,0
	C-93.6,316.2-94.2,316.8-94.9,316.8z"/>
<path fill="#1A1A1A" d="M72.3,317.6c0.8-0.1,1.4-0.7,1.5-1.5c0,0,0.5-5.9-3.6-10c-4.1-4.1-10-3.6-10-3.6c-0.8,0.1-1.4,0.7-1.5,1.5
	c0,0-0.5,5.9,3.6,10C66.4,318.1,72.3,317.6,72.3,317.6z"/>
<g>
	<path fill="#414042" d="M-301,143.3c1.2-2,3.1-4.9,5.6-7.7c0,0,0,0,0,0c2.1-2.4,6.1-5.4,6.1-5.4c0.6-0.5,0.5-1.1-0.1-1.4l-4.9-2.3
		c-0.7-0.3-1.6-0.1-2.1,0.5c0,0-3.6,5.2-7.9,16.2c-13.1-5.9-25.6,2.4-25.6,16.8c0,15.1,11.6,38.1,27.3,31.1
		c16.6,7.2,27.4-16,27.4-31.1C-275.2,145.5-286.5,136.9-301,143.3z"/>
	<path fill="#414042" d="M-304,138.4c0.8-0.1,1.4-0.7,1.5-1.5c0,0,0.5-5.9-3.6-10c-4.1-4.1-10-3.6-10-3.6c-0.8,0.1-1.4,0.7-1.5,1.5
		c0,0-0.5,5.9,3.6,10C-309.9,138.9-304,138.4-304,138.4z"/>
</g>
<path fill="#FFFFFF" d="M-324.5,166.5c0,0,5.8,23,21.9,19C-302.6,185.5-315.5,182.5-324.5,166.5z"/>
<path fill="none" d="M56.5,348.1c0,0,5.8,23,21.9,19C78.4,367.1,65.5,364.1,56.5,348.1z"/>
<path fill="#1A1A1A" d="M80.4,318.9c1.2-2,3-4.5,5.1-7c0,0,0,0,0,0c2.1-2.4,6.1-5.4,6.1-5.4c0.6-0.5,0.5-1.1-0.1-1.4l-4.9-2.3
	c-0.7-0.3-1.6-0.1-2.1,0.5c0,0-3.5,5-7.6,15.5C78.4,319.3,79.6,319.2,80.4,318.9z"/>
<path fill="#1A1A1A" d="M80,325C80,325,80,325,80,325c-1.3,0.6-2.5,0.3-3.3-0.2c0,0,0,0.1,0,0.1c-13.1-5.9-25.6,2.4-25.6,16.8
	c0,15.1,11.6,38.1,27.3,31.1c16.6,7.2,27.4-16,27.4-31.1C105.8,327.1,94.5,318.6,80,325z M56.5,348.1c9,16,21.9,19,21.9,19
	C62.3,371.1,56.5,348.1,56.5,348.1z"/>
<rect x="991.9" y="181.7" width="38.3" height="29.4"/>
<g>
	<path fill="#010101" d="M967.4,315.6c-2.9,2.8-4.7,6.8-4.7,11.2c0,4.4,1.8,8.4,4.7,11.2c0.6,0.6,1.7,0.6,2.3,0
		c2.9-2.8,4.7-6.8,4.7-11.2c0-4.4-1.8-8.4-4.7-11.2C969.1,315,968.1,315,967.4,315.6z"/>
	<path fill="#010101" d="M983.1,335.4c-4.4,0-8.4,1.8-11.2,4.7c-0.6,0.6-0.6,1.7,0,2.3c2.9,2.9,6.8,4.7,11.2,4.7
		c4.4,0,8.4-1.8,11.2-4.7c0.6-0.6,0.6-1.7,0-2.3C991.4,337.2,987.5,335.4,983.1,335.4z"/>
	<path fill="#010101" d="M978.8,304.3c-2.9,2.8-4.7,6.8-4.7,11.2c0,4.4,1.8,8.4,4.7,11.2c0.6,0.6,1.7,0.6,2.3,0
		c2.9-2.8,4.7-6.8,4.7-11.2c0-4.4-1.8-8.4-4.7-11.2C980.5,303.7,979.4,303.7,978.8,304.3z"/>
	<path fill="#010101" d="M1005.6,328.8c-2.9-2.9-6.8-4.7-11.2-4.7c-4.4,0-8.4,1.8-11.2,4.7c-0.6,0.6-0.6,1.7,0,2.3
		c2.9,2.9,6.8,4.7,11.2,4.7c4.4,0,8.4-1.8,11.2-4.7C1006.3,330.5,1006.3,329.5,1005.6,328.8z"/>
	<path fill="#010101" d="M992.5,292.9c-0.6-0.6-1.7-0.6-2.3,0c-2.9,2.8-4.7,6.8-4.7,11.2c0,4.4,1.8,8.4,4.7,11.2
		c0.6,0.6,1.7,0.6,2.3,0c2.9-2.8,4.7-6.8,4.7-11.2C997.2,299.8,995.4,295.8,992.5,292.9z"/>
	<path fill="#010101" d="M1005.8,312.7c-4.4,0-8.4,1.8-11.2,4.7c-0.6,0.6-0.6,1.7,0,2.3c2.9,2.9,6.8,4.7,11.2,4.7
		c4.4,0,8.4-1.8,11.2-4.7c0.6-0.6,0.6-1.7,0-2.3C1014.1,314.5,1010.2,312.7,1005.8,312.7z"/>
	<path fill="#010101" d="M1003.8,281.6c-0.6-0.6-1.7-0.6-2.3,0c-2.9,2.8-4.7,6.8-4.7,11.2c0,4.4,1.8,8.4,4.7,11.2
		c0.6,0.6,1.7,0.6,2.3,0c2.9-2.8,4.7-6.8,4.7-11.2C1008.5,288.4,1006.7,284.4,1003.8,281.6z"/>
	<path fill="#010101" d="M1017.1,301.4c-4.4,0-8.4,1.8-11.2,4.7c-0.6,0.6-0.6,1.7,0,2.3c2.9,2.9,6.8,4.7,11.2,4.7
		c4.4,0,8.4-1.8,11.2-4.7c0.6-0.6,0.6-1.7,0-2.3C1025.5,303.2,1021.5,301.4,1017.1,301.4z"/>
	<path fill="#010101" d="M1015.6,286c-3.1,3.1-4.6,7.2-4.6,11.3c0,0.9,0.7,1.6,1.6,1.6c4.1,0,8.2-1.5,11.3-4.6
		c3.1-3.1,4.6-7.2,4.6-11.3c0-0.9-0.7-1.6-1.6-1.6C1022.8,281.3,1018.8,282.9,1015.6,286z"/>
	<path fill="#010101" d="M953.9,356.9c0.9,0.9,2.4,0.9,3.4,0l10.9-10.9c0.9-0.9,0.9-2.4,0-3.4l-1-1c-0.9-0.9-2.4-0.9-3.4,0
		l-10.9,10.9c-0.9,0.9-0.9,2.4,0,3.4L953.9,356.9z"/>
</g>
<g>
	<path fill="#414042" d="M342.7,379.5c-1.9,1.8-3.1,4.4-3.1,7.3c0,2.9,1.2,5.4,3.1,7.3c0.4,0.4,1.1,0.4,1.5,0
		c1.9-1.8,3.1-4.4,3.1-7.3c0-2.9-1.2-5.4-3.1-7.3C343.8,379.1,343.1,379.1,342.7,379.5z"/>
	<path fill="#414042" d="M352.8,392.4c-2.9,0-5.4,1.2-7.3,3.1c-0.4,0.4-0.4,1.1,0,1.5c1.9,1.9,4.4,3.1,7.3,3.1
		c2.9,0,5.4-1.2,7.3-3.1c0.4-0.4,0.4-1.1,0-1.5C358.2,393.6,355.6,392.4,352.8,392.4z"/>
	<path fill="#414042" d="M350,372.2c-1.9,1.8-3.1,4.4-3.1,7.3c0,2.9,1.2,5.4,3.1,7.3c0.4,0.4,1.1,0.4,1.5,0c1.9-1.8,3.1-4.4,3.1-7.3
		c0-2.9-1.2-5.4-3.1-7.3C351.1,371.8,350.5,371.8,350,372.2z"/>
	<path fill="#414042" d="M367.5,388.1c-1.9-1.9-4.4-3.1-7.3-3.1s-5.4,1.2-7.3,3.1c-0.4,0.4-0.4,1.1,0,1.5c1.9,1.9,4.4,3.1,7.3,3.1
		c2.9,0,5.4-1.2,7.3-3.1C367.9,389.2,367.9,388.5,367.5,388.1z"/>
	<path fill="#414042" d="M358.9,364.8c-0.4-0.4-1.1-0.4-1.5,0c-1.9,1.8-3.1,4.4-3.1,7.3c0,2.9,1.2,5.4,3.1,7.3
		c0.4,0.4,1.1,0.4,1.5,0c1.9-1.8,3.1-4.4,3.1-7.3C362,369.2,360.8,366.7,358.9,364.8z"/>
	<path fill="#414042" d="M367.5,377.7c-2.9,0-5.4,1.2-7.3,3.1c-0.4,0.4-0.4,1.1,0,1.5c1.9,1.9,4.4,3.1,7.3,3.1
		c2.9,0,5.4-1.2,7.3-3.1c0.4-0.4,0.4-1.1,0-1.5C373,378.8,370.4,377.7,367.5,377.7z"/>
	<path fill="#414042" d="M366.3,357.4c-0.4-0.4-1.1-0.4-1.5,0c-1.9,1.8-3.1,4.4-3.1,7.3c0,2.9,1.2,5.4,3.1,7.3
		c0.4,0.4,1.1,0.4,1.5,0c1.9-1.8,3.1-4.4,3.1-7.3C369.3,361.9,368.2,359.3,366.3,357.4z"/>
	<path fill="#414042" d="M374.9,370.3c-2.9,0-5.4,1.2-7.3,3.1c-0.4,0.4-0.4,1.1,0,1.5c1.9,1.9,4.4,3.1,7.3,3.1
		c2.9,0,5.4-1.2,7.3-3.1c0.4-0.4,0.4-1.1,0-1.5C380.3,371.5,377.8,370.3,374.9,370.3z"/>
	<path fill="#414042" d="M373.9,360.3c-2,2-3,4.7-3,7.3c0,0.6,0.5,1.1,1.1,1.1c2.6,0,5.3-1,7.3-3s3-4.7,3-7.3c0-0.6-0.5-1.1-1.1-1.1
		C378.6,357.3,376,358.3,373.9,360.3z"/>
	<path fill="#414042" d="M333.9,406.4c0.6,0.6,1.6,0.6,2.2,0l7.1-7.1c0.6-0.6,0.6-1.6,0-2.2l-0.7-0.7c-0.6-0.6-1.6-0.6-2.2,0
		l-7.1,7.1c-0.6,0.6-0.6,1.6,0,2.2L333.9,406.4z"/>
</g>
<path fill="#414042" d="M349.2,368.7c0.5-0.5,1.4-0.5,2,0c0.7,0.6,1.3,1.3,1.9,2c-0.1-0.6-0.2-1.2-0.2-1.8c0-3.4,1.5-6.4,4-8.6
	c0.5-0.5,1.4-0.5,2,0c0.6,0.5,1.1,1,1.5,1.6c0-0.1,0-0.2,0-0.3c0-3.1,1.3-5.9,3.5-8.1v-7.2H375c2.2,0,2.7-1.2,1-2.7L339.9,312
	c-1.7-1.5-4.4-1.5-6.1,0l-36.1,31.7c-1.7,1.5-1.2,2.7,1,2.7h11.1v32.5c0,1.8,1.5,3.2,3.2,3.2h13.6v-21.4c0-1.8,1.5-3.2,3.2-3.2h13.8
	c1.8,0,3.2,1.4,3.2,3.2v10.4C347.6,370.3,348.3,369.4,349.2,368.7z"/>
<path fill="#010101" d="M932.5,412.4l-55.6-48.9c-2.6-2.3-6.8-2.3-9.3,0L812,412.4c-2.6,2.3-1.9,4.1,1.6,4.1h17.1v50.1
	c0,2.7,2.2,5,5,5h21v-32.9c0-2.7,2.2-5,5-5h21.2c2.8,0,5,2.2,5,5v32.9h21c2.8,0,5-2.2,5-5v-50.1h17.1
	C934.3,416.5,935,414.7,932.5,412.4z"/>
<path fill="#FFFFFF" d="M891.1,450.8c-3.8,3.3-6.2,8-6.2,13.2c0,5.2,2.4,9.8,6.2,13.2c0.8,0.7,2.2,0.7,3,0c3.8-3.3,6.2-8,6.2-13.2
	c0-5.2-2.4-9.8-6.2-13.2C893.3,450.1,892,450.1,891.1,450.8z"/>
<path fill="#FFFFFF" d="M906,438c-0.8-0.7-2.2-0.7-3,0c-3.8,3.3-6.2,8-6.2,13.2c0,5.2,2.4,9.8,6.2,13.2c0.8,0.7,2.2,0.7,3,0
	c3.8-3.3,6.2-8,6.2-13.2C912.2,446.1,909.8,441.4,906,438z"/>
<path fill="#FFFFFF" d="M917.6,426.9c-0.8-0.7-2.2-0.7-3,0c-3.8,3.3-6.2,8-6.2,13.2c0,5.2,2.4,9.8,6.2,13.2c0.8,0.7,2.2,0.7,3,0
	c3.8-3.3,6.2-8,6.2-13.2C923.8,434.9,921.4,430.3,917.6,426.9z"/>
<path fill="#FFFFFF" d="M929.9,426.3c-3.3,3.3-4.9,7.6-4.9,11.9c0,1,0.8,1.7,1.7,1.7c4.3,0,8.6-1.6,11.9-4.9
	c3.3-3.3,4.9-7.6,4.9-11.9c0-1-0.8-1.7-1.7-1.7C937.6,421.4,933.2,423,929.9,426.3z"/>
<path fill="#FFFFFF" d="M909.1,447.7h8.3c6.6,0,12,5.4,12,12v32.6c0,6.6-5.4,12-12,12h-8.3c-6.6,0-12-5.4-12-12v-32.6
	C897.1,453.1,902.5,447.7,909.1,447.7z"/>
<g>
	<rect x="40.7" y="399.3" fill="none" width="61.9" height="12.4"/>
	<text transform="matrix(1 0 0 1 42.5381 407.5714)" font-family="'Futura-Bold'" font-size="10">NUTRITION</text>
</g>
<g>
	<rect x="176.1" y="399.3" fill="none" width="83.5" height="12.4"/>
	<text transform="matrix(1 0 0 1 180.9878 407.5704)" font-family="'Futura-Bold'" font-size="10">CLEAN WATER</text>
</g>
<g>
	<rect x="297.5" y="411.6" fill="none" width="84.4" height="12.4"/>
	<text transform="matrix(1 0 0 1 305.2939 419.9199)" font-family="'Futura-Bold'" font-size="10">LIVELIHOODS</text>
</g>
<g>
	<rect x="444.4" y="411.6" fill="none" width="79.1" height="12.4"/>
	<text transform="matrix(1 0 0 1 451.9067 419.92)" font-family="'Futura-Bold'" font-size="10">EMERGENCY</text>
</g>
<g>
	<rect x="641.3" y="223.5" fill="none" width="79.1" height="12.4"/>
	<text transform="matrix(1 0 0 1 673.0522 231.8452)" fill="#BE1E2D" font-family="'Futura-Bold'" font-size="10">OR</text>
</g>
<rect x="479" y="196.9" fill="#FFFFFF" width="49.9" height="3.2"/>
<path fill="#58595B" d="M639.3,370.5l-1.5,3.8h-6l8.3-21.7h6.1l8.2,21.7h-6l-1.4-3.8H639.3z M643.3,359.3L643.3,359.3l-2.4,6.9h4.7
	L643.3,359.3z"/>
<path fill="#58595B" d="M671.7,359.8c-1.1-1.6-3-2.4-4.9-2.4c-3.4,0-5.8,2.6-5.8,6c0,3.4,2.4,5.9,5.9,5.9c1.8,0,3.7-0.9,4.9-2.3v6.7
	c-1.9,0.6-3.2,1-5,1c-3,0-5.9-1.1-8.1-3.2c-2.4-2.2-3.5-5-3.5-8.2c0-3,1.1-5.8,3.2-7.9c2.1-2.2,5.2-3.5,8.2-3.5
	c1.8,0,3.5,0.4,5.1,1.1V359.8z"/>
<path fill="#58595B" d="M683.8,374.2h-5.6v-16.9h-4.7v-4.8h14.9v4.8h-4.7V374.2z"/>
<path fill="#58595B" d="M696.1,374.2h-5.6v-21.7h5.6V374.2z"/>
<path fill="#58595B" d="M725.3,352.6h5.6l10.3,13.2h0.1v-13.2h5.6v21.7h-5.6L731,361h-0.1v13.3h-5.6V352.6z"/>
<path fill="#333333" d="M722.7,363c0-6.6-5.7-11.1-12-11.1s-12,4.6-12,11.1c0,6.6,4.5,11.4,10.8,11.9l0-5.2c0-0.2-0.1-0.3-0.2-0.3
	c-1.4-0.7-2.4-2.1-2.4-3.7l-0.1-8.2c0-0.2,0.2-0.4,0.4-0.4l0.7,0c0.2,0,0.4,0.2,0.4,0.4l0.1,6.5c0,0.5,0.6,0.9,1.2,0.4
	c0.1-0.1,0.1-0.2,0.1-0.3l-0.1-6.6c0-0.2,0.2-0.4,0.4-0.4c0.2,0,0.4,0.2,0.4,0.4l0.1,6.5c0,0.5,0.6,0.9,1.2,0.4
	c0.1-0.1,0.1-0.2,0.1-0.3l-0.1-6.6c0-0.2,0.2-0.4,0.4-0.4l0.1,0c0.2,0,0.4,0.2,0.4,0.4l0.1,6.6c0,0.1,0,0.2,0.1,0.3
	c0.5,0.5,1.2,0.1,1.2-0.4l-0.1-6.5c0-0.2,0.2-0.4,0.4-0.4l0.5,0c0.2,0,0.4,0.2,0.4,0.4l0.1,8.2c0,1.7-0.9,3.1-2.3,3.8
	c-0.1,0.1-0.2,0.2-0.2,0.4l0,5.2C718.6,373.9,722.7,369.3,722.7,363z"/>
<path fill="#58595B" d="M638.2,390.5l-1.3,3.2h-5.1l7.1-18.3h5.2l6.9,18.3H646l-1.2-3.2H638.2z M641.5,381L641.5,381l-2,5.8h4
	L641.5,381z"/>
<path fill="#58595B" d="M670.8,383.5c0,2.7-0.2,5-1.9,7.3c-1.8,2.5-4.5,3.6-7.6,3.6c-5.8,0-9.8-3.9-9.8-9.7c0-6,4-9.9,10-9.9
	c3.8,0,6.7,1.7,8.3,5.1l-4.5,1.9c-0.7-1.8-2-2.9-4-2.9c-3.1,0-4.8,3-4.8,5.8c0,2.8,1.7,5.7,4.8,5.7c2.1,0,3.7-1.1,3.8-3.2h-3.9v-3.7
	H670.8z"/>
<path fill="#58595B" d="M677.7,390.5l-1.3,3.2h-5.1l7.1-18.3h5.2l6.9,18.3h-5.1l-1.2-3.2H677.7z M681,381L681,381l-2,5.8h4L681,381z
	"/>
<path fill="#58595B" d="M696.8,393.7H692v-18.3h4.8V393.7z"/>
<path fill="#58595B" d="M699.9,375.3h4.8l8.7,11.2h0v-11.2h4.8v18.3h-4.8l-8.7-11.2h0v11.2h-4.8V375.3z"/>
<path fill="#58595B" d="M731.4,380.1c-0.9-0.7-2-1.2-3.2-1.2c-0.9,0-2,0.5-2,1.5c0,1.1,1.3,1.5,2.1,1.8l1.2,0.4c2.6,0.8,4.5,2,4.5,5
	c0,1.8-0.4,3.7-1.9,4.9c-1.4,1.2-3.4,1.7-5.2,1.7c-2.3,0-4.6-0.8-6.4-2.1l2-3.8c1.2,1,2.6,1.9,4.2,1.9c1.1,0,2.3-0.6,2.3-1.8
	c0-1.3-1.9-1.8-2.9-2.1c-3-0.9-5-1.6-5-5.2c0-3.7,2.7-6.2,6.3-6.2c1.8,0,4.1,0.6,5.7,1.5L731.4,380.1z"/>
<path fill="#58595B" d="M743.6,393.7h-4.8v-14.3h-3.9v-4h12.7v4h-3.9V393.7z"/>
<rect x="620.2" y="396.2" fill="none" width="136.1" height="35.6"/>
<text transform="matrix(1 0 0 1 629.7889 417.1533)" fill="#58595B" font-family="'Lato-Black'" font-size="28">HUNGER</text>
</svg>
